<svg id="visual" viewBox="0 0 900 600" width="900" height="600" xmlns="http://www.w3.org/2000/svg" xmlns:xlink="http://www.w3.org/1999/xlink" version="1.1"><g stroke-width="1" stroke-linejoin="bevel"><path d="M427 295L505 273L427 239Z" fill="#17242f" stroke="#17242f"></path><path d="M505 273L496 187L427 239Z" fill="#17242f" stroke="#17242f"></path><path d="M496 187L421 137L427 239Z" fill="#3e6178" stroke="#3e6178"></path><path d="M427 239L332 311L427 295Z" fill="#5c99b7" stroke="#5c99b7"></path><path d="M338 179L332 311L427 239Z" fill="#558ba7" stroke="#558ba7"></path><path d="M421 137L338 179L427 239Z" fill="#17242f" stroke="#17242f"></path><path d="M632 178L517 124L496 187Z" fill="#64a8c7" stroke="#64a8c7"></path><path d="M496 187L517 124L421 137Z" fill="#17242f" stroke="#17242f"></path><path d="M432 439L493 430L427 295Z" fill="#558ba7" stroke="#558ba7"></path><path d="M427 295L493 430L505 273Z" fill="#2e475a" stroke="#2e475a"></path><path d="M505 273L632 178L496 187Z" fill="#17242f" stroke="#17242f"></path><path d="M330 405L432 439L427 295Z" fill="#466f87" stroke="#466f87"></path><path d="M615 383L637 294L505 273Z" fill="#558ba7" stroke="#558ba7"></path><path d="M332 311L330 405L427 295Z" fill="#1f2f3d" stroke="#1f2f3d"></path><path d="M637 294L632 178L505 273Z" fill="#365469" stroke="#365469"></path><path d="M493 430L615 383L505 273Z" fill="#17242f" stroke="#17242f"></path><path d="M391 0L305 139L421 137Z" fill="#1f2f3d" stroke="#1f2f3d"></path><path d="M421 137L305 139L338 179Z" fill="#365469" stroke="#365469"></path><path d="M178 303L207 360L332 311Z" fill="#3e6178" stroke="#3e6178"></path><path d="M332 311L207 360L330 405Z" fill="#365469" stroke="#365469"></path><path d="M681 304L672 218L637 294Z" fill="#466f87" stroke="#466f87"></path><path d="M637 294L672 218L632 178Z" fill="#4d7c97" stroke="#4d7c97"></path><path d="M432 439L494 482L493 430Z" fill="#466f87" stroke="#466f87"></path><path d="M493 430L494 482L615 383Z" fill="#64a8c7" stroke="#64a8c7"></path><path d="M401 537L494 482L432 439Z" fill="#2e475a" stroke="#2e475a"></path><path d="M615 383L681 304L637 294Z" fill="#2e475a" stroke="#2e475a"></path><path d="M690 129L625 113L632 178Z" fill="#2e475a" stroke="#2e475a"></path><path d="M632 178L625 113L517 124Z" fill="#365469" stroke="#365469"></path><path d="M517 124L494 0L421 137Z" fill="#558ba7" stroke="#558ba7"></path><path d="M672 218L690 129L632 178Z" fill="#3e6178" stroke="#3e6178"></path><path d="M760 172L690 129L672 218Z" fill="#1f2f3d" stroke="#1f2f3d"></path><path d="M581 0L517 124L625 113Z" fill="#17242f" stroke="#17242f"></path><path d="M581 0L494 0L517 124Z" fill="#17242f" stroke="#17242f"></path><path d="M178 303L332 311L338 179Z" fill="#263b4b" stroke="#263b4b"></path><path d="M337 524L401 537L432 439Z" fill="#17242f" stroke="#17242f"></path><path d="M494 0L391 0L421 137Z" fill="#2e475a" stroke="#2e475a"></path><path d="M337 524L432 439L330 405Z" fill="#2e475a" stroke="#2e475a"></path><path d="M237 519L337 524L330 405Z" fill="#466f87" stroke="#466f87"></path><path d="M162 183L178 303L338 179Z" fill="#1f2f3d" stroke="#1f2f3d"></path><path d="M162 183L338 179L305 139Z" fill="#5c99b7" stroke="#5c99b7"></path><path d="M694 0L581 0L625 113Z" fill="#5c99b7" stroke="#5c99b7"></path><path d="M620 530L732 388L615 383Z" fill="#64a8c7" stroke="#64a8c7"></path><path d="M615 383L732 388L681 304Z" fill="#263b4b" stroke="#263b4b"></path><path d="M681 304L760 172L672 218Z" fill="#263b4b" stroke="#263b4b"></path><path d="M620 530L615 383L494 482Z" fill="#17242f" stroke="#17242f"></path><path d="M467 600L620 530L494 482Z" fill="#263b4b" stroke="#263b4b"></path><path d="M391 0L303 0L305 139Z" fill="#263b4b" stroke="#263b4b"></path><path d="M182 66L162 183L305 139Z" fill="#1f2f3d" stroke="#1f2f3d"></path><path d="M813 316L760 172L681 304Z" fill="#558ba7" stroke="#558ba7"></path><path d="M690 129L694 0L625 113Z" fill="#466f87" stroke="#466f87"></path><path d="M411 600L467 600L401 537Z" fill="#558ba7" stroke="#558ba7"></path><path d="M401 537L467 600L494 482Z" fill="#3e6178" stroke="#3e6178"></path><path d="M333 600L411 600L401 537Z" fill="#4d7c97" stroke="#4d7c97"></path><path d="M207 360L237 519L330 405Z" fill="#3e6178" stroke="#3e6178"></path><path d="M337 524L333 600L401 537Z" fill="#365469" stroke="#365469"></path><path d="M86 477L237 519L207 360Z" fill="#365469" stroke="#365469"></path><path d="M732 536L776 392L732 388Z" fill="#466f87" stroke="#466f87"></path><path d="M732 388L813 316L681 304Z" fill="#2e475a" stroke="#2e475a"></path><path d="M127 137L124 222L162 183Z" fill="#17242f" stroke="#17242f"></path><path d="M162 183L124 222L178 303Z" fill="#466f87" stroke="#466f87"></path><path d="M178 303L86 307L207 360Z" fill="#64a8c7" stroke="#64a8c7"></path><path d="M303 0L182 66L305 139Z" fill="#4d7c97" stroke="#4d7c97"></path><path d="M765 0L694 0L690 129Z" fill="#5c99b7" stroke="#5c99b7"></path><path d="M776 392L813 316L732 388Z" fill="#558ba7" stroke="#558ba7"></path><path d="M237 519L333 600L337 524Z" fill="#3e6178" stroke="#3e6178"></path><path d="M182 66L127 137L162 183Z" fill="#4d7c97" stroke="#4d7c97"></path><path d="M303 0L212 0L182 66Z" fill="#4d7c97" stroke="#4d7c97"></path><path d="M182 66L92 0L127 137Z" fill="#5c99b7" stroke="#5c99b7"></path><path d="M900 227L803 134L760 172Z" fill="#466f87" stroke="#466f87"></path><path d="M760 172L803 134L690 129Z" fill="#365469" stroke="#365469"></path><path d="M620 530L732 536L732 388Z" fill="#17242f" stroke="#17242f"></path><path d="M467 600L628 600L620 530Z" fill="#466f87" stroke="#466f87"></path><path d="M0 298L86 307L124 222Z" fill="#558ba7" stroke="#558ba7"></path><path d="M124 222L86 307L178 303Z" fill="#3e6178" stroke="#3e6178"></path><path d="M687 600L732 536L620 530Z" fill="#64a8c7" stroke="#64a8c7"></path><path d="M900 363L900 300L813 316Z" fill="#365469" stroke="#365469"></path><path d="M128 600L236 600L237 519Z" fill="#5c99b7" stroke="#5c99b7"></path><path d="M237 519L236 600L333 600Z" fill="#263b4b" stroke="#263b4b"></path><path d="M628 600L687 600L620 530Z" fill="#365469" stroke="#365469"></path><path d="M803 134L765 0L690 129Z" fill="#5c99b7" stroke="#5c99b7"></path><path d="M86 307L71 436L207 360Z" fill="#365469" stroke="#365469"></path><path d="M71 436L86 477L207 360Z" fill="#4d7c97" stroke="#4d7c97"></path><path d="M900 363L813 316L776 392Z" fill="#2e475a" stroke="#2e475a"></path><path d="M813 316L900 227L760 172Z" fill="#1f2f3d" stroke="#1f2f3d"></path><path d="M803 134L900 63L765 0Z" fill="#365469" stroke="#365469"></path><path d="M835 503L776 392L732 536Z" fill="#1f2f3d" stroke="#1f2f3d"></path><path d="M900 300L900 227L813 316Z" fill="#2e475a" stroke="#2e475a"></path><path d="M826 600L835 503L732 536Z" fill="#64a8c7" stroke="#64a8c7"></path><path d="M835 503L900 363L776 392Z" fill="#17242f" stroke="#17242f"></path><path d="M212 0L92 0L182 66Z" fill="#466f87" stroke="#466f87"></path><path d="M0 171L0 298L124 222Z" fill="#2e475a" stroke="#2e475a"></path><path d="M86 307L0 372L71 436Z" fill="#558ba7" stroke="#558ba7"></path><path d="M0 171L124 222L127 137Z" fill="#64a8c7" stroke="#64a8c7"></path><path d="M71 436L0 504L86 477Z" fill="#466f87" stroke="#466f87"></path><path d="M86 477L128 600L237 519Z" fill="#5c99b7" stroke="#5c99b7"></path><path d="M0 600L128 600L86 477Z" fill="#4d7c97" stroke="#4d7c97"></path><path d="M0 119L0 171L127 137Z" fill="#3e6178" stroke="#3e6178"></path><path d="M0 298L0 372L86 307Z" fill="#558ba7" stroke="#558ba7"></path><path d="M900 227L900 63L803 134Z" fill="#5c99b7" stroke="#5c99b7"></path><path d="M92 0L0 119L127 137Z" fill="#558ba7" stroke="#558ba7"></path><path d="M687 600L826 600L732 536Z" fill="#64a8c7" stroke="#64a8c7"></path><path d="M835 503L900 495L900 363Z" fill="#3e6178" stroke="#3e6178"></path><path d="M900 600L900 495L835 503Z" fill="#365469" stroke="#365469"></path><path d="M900 63L900 0L765 0Z" fill="#365469" stroke="#365469"></path><path d="M0 372L0 504L71 436Z" fill="#64a8c7" stroke="#64a8c7"></path><path d="M92 0L0 0L0 119Z" fill="#1f2f3d" stroke="#1f2f3d"></path><path d="M826 600L900 600L835 503Z" fill="#4d7c97" stroke="#4d7c97"></path><path d="M0 504L0 600L86 477Z" fill="#17242f" stroke="#17242f"></path></g></svg>