<svg id="visual" viewBox="0 0 900 600" width="900" height="600" xmlns="http://www.w3.org/2000/svg" xmlns:xlink="http://www.w3.org/1999/xlink" version="1.1"><path d="M0 354L21.5 355.5C43 357 86 360 128.8 373.5C171.7 387 214.3 411 257.2 413.5C300 416 343 397 385.8 394.5C428.7 392 471.3 406 514.2 415C557 424 600 428 642.8 427.5C685.7 427 728.3 422 771.2 419.5C814 417 857 417 878.5 417L900 417L900 601L878.5 601C857 601 814 601 771.2 601C728.3 601 685.7 601 642.8 601C600 601 557 601 514.2 601C471.3 601 428.7 601 385.8 601C343 601 300 601 257.2 601C214.3 601 171.7 601 128.8 601C86 601 43 601 21.5 601L0 601Z" fill="#0066ff"></path><path d="M0 437L21.5 432C43 427 86 417 128.8 423.2C171.7 429.3 214.3 451.7 257.2 456.5C300 461.3 343 448.7 385.8 439.5C428.7 430.3 471.3 424.7 514.2 431.7C557 438.7 600 458.3 642.8 459.8C685.7 461.3 728.3 444.7 771.2 444.5C814 444.3 857 460.7 878.5 468.8L900 477L900 601L878.5 601C857 601 814 601 771.2 601C728.3 601 685.7 601 642.8 601C600 601 557 601 514.2 601C471.3 601 428.7 601 385.8 601C343 601 300 601 257.2 601C214.3 601 171.7 601 128.8 601C86 601 43 601 21.5 601L0 601Z" fill="#007aff"></path><path d="M0 510L21.5 505.5C43 501 86 492 128.8 481.2C171.7 470.3 214.3 457.7 257.2 454.2C300 450.7 343 456.3 385.8 460C428.7 463.7 471.3 465.3 514.2 465.8C557 466.3 600 465.7 642.8 467C685.7 468.3 728.3 471.7 771.2 467C814 462.3 857 449.7 878.5 443.3L900 437L900 601L878.5 601C857 601 814 601 771.2 601C728.3 601 685.7 601 642.8 601C600 601 557 601 514.2 601C471.3 601 428.7 601 385.8 601C343 601 300 601 257.2 601C214.3 601 171.7 601 128.8 601C86 601 43 601 21.5 601L0 601Z" fill="#008cff"></path><path d="M0 482L21.5 491.8C43 501.7 86 521.3 128.8 525.2C171.7 529 214.3 517 257.2 512.8C300 508.7 343 512.3 385.8 508.8C428.7 505.3 471.3 494.7 514.2 490.2C557 485.7 600 487.3 642.8 496.2C685.7 505 728.3 521 771.2 527.8C814 534.7 857 532.3 878.5 531.2L900 530L900 601L878.5 601C857 601 814 601 771.2 601C728.3 601 685.7 601 642.8 601C600 601 557 601 514.2 601C471.3 601 428.7 601 385.8 601C343 601 300 601 257.2 601C214.3 601 171.7 601 128.8 601C86 601 43 601 21.5 601L0 601Z" fill="#2b9dfc"></path><path d="M0 533L21.5 534.8C43 536.7 86 540.3 128.8 542.5C171.7 544.7 214.3 545.3 257.2 545.5C300 545.7 343 545.3 385.8 544.3C428.7 543.3 471.3 541.7 514.2 538.8C557 536 600 532 642.8 531.3C685.7 530.7 728.3 533.3 771.2 532.8C814 532.3 857 528.7 878.5 526.8L900 525L900 601L878.5 601C857 601 814 601 771.2 601C728.3 601 685.7 601 642.8 601C600 601 557 601 514.2 601C471.3 601 428.7 601 385.8 601C343 601 300 601 257.2 601C214.3 601 171.7 601 128.8 601C86 601 43 601 21.5 601L0 601Z" fill="#4facf7"></path></svg>